<svg xmlns="http://www.w3.org/2000/svg" xmlns:xlink="http://www.w3.org/1999/xlink" width="80" height="32" viewBox="0 0 80 32">
  <defs>
    <style>
      .cls-1 {
        fill: none;
        stroke: #707070;
      }

      .cls-2 {
        clip-path: url(#clip-path);
      }

      .cls-3 {
        fill: #00917e;
      }

      .cls-4 {
        fill: #fff;
      }
    </style>
    <clipPath id="clip-path">
      <rect id="Rectángulo_81" data-name="Rectángulo 81" class="cls-1" width="80" height="32" transform="translate(1601 44)"/>
    </clipPath>
  </defs>
  <g id="icono-comprasegura-03" class="cls-2" transform="translate(-1601 -44)">
    <g id="Grupo_65" data-name="Grupo 65" transform="translate(1603.002 46.666)">
      <g id="Grupo_32" data-name="Grupo 32" transform="translate(22.791 13.807)">
        <path id="Trazado_97" data-name="Trazado 97" d="M269.259,444.66a3.377,3.377,0,0,0-2.652-1.046,3.206,3.206,0,0,0-2.06.537,1.787,1.787,0,0,0-.646,1.448,1.621,1.621,0,0,0,.163.769,1.406,1.406,0,0,0,.51.524,3.4,3.4,0,0,0,.877.367q.53.15,1.278.312.775.164,1.408.361a4.07,4.07,0,0,1,1.074.5,2.1,2.1,0,0,1,.68.734,2.217,2.217,0,0,1,.238,1.074,2.351,2.351,0,0,1-.252,1.115,2.244,2.244,0,0,1-.707.8,3.339,3.339,0,0,1-1.088.482,5.631,5.631,0,0,1-1.407.163,5.431,5.431,0,0,1-3.821-1.441l.367-.558a4.429,4.429,0,0,0,1.5,1.013,5.044,5.044,0,0,0,1.985.374,3.621,3.621,0,0,0,1.978-.462,1.557,1.557,0,0,0,.714-1.4,1.6,1.6,0,0,0-.19-.809,1.705,1.705,0,0,0-.565-.578,3.773,3.773,0,0,0-.945-.422q-.571-.176-1.333-.339T265,447.821a3.621,3.621,0,0,1-.993-.462,1.855,1.855,0,0,1-.6-.673,2.148,2.148,0,0,1-.2-.993,2.551,2.551,0,0,1,.251-1.156,2.451,2.451,0,0,1,.7-.85,3.13,3.13,0,0,1,1.074-.524,5.121,5.121,0,0,1,1.387-.177,4.705,4.705,0,0,1,1.673.279,3.954,3.954,0,0,1,1.333.85Z" transform="translate(-262.854 -442.987)"/>
        <path id="Trazado_98" data-name="Trazado 98" d="M284.535,452.132v.626H278.1V443.1h6.31v.625H278.8v3.794h4.909v.6H278.8v4.011Z" transform="translate(-269.087 -443.034)"/>
        <path id="Trazado_99" data-name="Trazado 99" d="M298.485,451.2a4.239,4.239,0,0,1-3.25,1.577,3.971,3.971,0,0,1-1.816-.422,4.628,4.628,0,0,1-1.434-1.116,5.3,5.3,0,0,1-.938-1.577,4.952,4.952,0,0,1-.34-1.795,5.158,5.158,0,0,1,.333-1.835,5.106,5.106,0,0,1,.924-1.564,4.459,4.459,0,0,1,1.408-1.081,3.985,3.985,0,0,1,1.781-.4,4.979,4.979,0,0,1,1.3.157,3.96,3.96,0,0,1,1.033.435,3.318,3.318,0,0,1,.789.666,4.131,4.131,0,0,1,.565.85l-.571.34a3.108,3.108,0,0,0-1.3-1.38,3.853,3.853,0,0,0-1.829-.429,3.261,3.261,0,0,0-1.55.367,3.836,3.836,0,0,0-1.183.965,4.316,4.316,0,0,0-.748,1.36,4.822,4.822,0,0,0-.258,1.564,4.467,4.467,0,0,0,1.122,2.978,4,4,0,0,0,1.231.931,3.413,3.413,0,0,0,1.523.347,3.632,3.632,0,0,0,1.679-.409,5,5,0,0,0,1.53-1.291v-1.864H296.3v-.557h2.788v4.691h-.6Z" transform="translate(-274.24 -442.987)"/>
        <path id="Trazado_100" data-name="Trazado 100" d="M312.1,452.186a3.255,3.255,0,0,0,1.625-.367,2.824,2.824,0,0,0,1.02-.965,4.106,4.106,0,0,0,.53-1.36,7.636,7.636,0,0,0,.157-1.537V443.1h.693v4.854a7.964,7.964,0,0,1-.21,1.849,4.457,4.457,0,0,1-.687,1.557,3.4,3.4,0,0,1-1.237,1.068,4.681,4.681,0,0,1-3.807-.021,3.44,3.44,0,0,1-1.244-1.1,4.483,4.483,0,0,1-.666-1.557,8.114,8.114,0,0,1-.2-1.8V443.1h.694v4.854a7.769,7.769,0,0,0,.156,1.564,3.857,3.857,0,0,0,.544,1.353,2.918,2.918,0,0,0,1.027.952A3.226,3.226,0,0,0,312.1,452.186Z" transform="translate(-281.338 -443.034)"/>
        <path id="Trazado_101" data-name="Trazado 101" d="M325.712,452.758V443.1h4.011a2.484,2.484,0,0,1,1.129.258,2.877,2.877,0,0,1,.891.686,3.3,3.3,0,0,1,.585.966,2.95,2.95,0,0,1,.21,1.081,3.262,3.262,0,0,1-.163,1.026,3.019,3.019,0,0,1-.462.89,2.585,2.585,0,0,1-.721.653,2.539,2.539,0,0,1-.925.34l2.407,3.753h-.8l-2.339-3.644h-3.128v3.644Zm.694-4.283h3.386a1.763,1.763,0,0,0,.843-.2,2.155,2.155,0,0,0,.653-.537,2.386,2.386,0,0,0,.415-.762,2.753,2.753,0,0,0,.143-.877,2.4,2.4,0,0,0-.17-.891,2.514,2.514,0,0,0-.462-.754,2.327,2.327,0,0,0-.68-.524,1.823,1.823,0,0,0-.837-.2h-3.291Z" transform="translate(-288.549 -443.034)"/>
        <path id="Trazado_102" data-name="Trazado 102" d="M342.676,443.1h.6l4.08,9.655h-.734l-1.346-3.182h-4.61l-1.346,3.182h-.748Zm2.406,5.9-2.108-5.059L340.827,449Z" transform="translate(-293.805 -443.034)"/>
      </g>
      <g id="Grupo_33" data-name="Grupo 33" transform="translate(27.516 1.987)">
        <path id="Trazado_103" data-name="Trazado 103" d="M270.846,426.991a4.141,4.141,0,0,1,.264-1.443,3.869,3.869,0,0,1,2.005-2.185,3.812,3.812,0,0,1,1.662-.349,3.622,3.622,0,0,1,1.9.483,3.088,3.088,0,0,1,1.2,1.258l-1.191.82a2.042,2.042,0,0,0-.382-.567,1.9,1.9,0,0,0-.483-.365,2.142,2.142,0,0,0-.539-.2,2.548,2.548,0,0,0-.55-.062,2.092,2.092,0,0,0-1.017.236,2.238,2.238,0,0,0-.719.613,2.685,2.685,0,0,0-.432.854,3.223,3.223,0,0,0-.146.949,3.1,3.1,0,0,0,.168,1.016,2.7,2.7,0,0,0,.477.86,2.39,2.39,0,0,0,.742.6,2.021,2.021,0,0,0,.949.225,2.5,2.5,0,0,0,.562-.067,2.105,2.105,0,0,0,1.045-.589,1.746,1.746,0,0,0,.359-.556l1.269.73a2.4,2.4,0,0,1-.545.792,3.486,3.486,0,0,1-.8.579,4.035,4.035,0,0,1-.949.359,4.169,4.169,0,0,1-.989.124,3.4,3.4,0,0,1-1.561-.359,4.064,4.064,0,0,1-1.219-.938,4.34,4.34,0,0,1-.8-1.315A4.085,4.085,0,0,1,270.846,426.991Z" transform="translate(-270.846 -423.003)"/>
        <path id="Trazado_104" data-name="Trazado 104" d="M287.634,431.083a3.63,3.63,0,0,1-1.59-.342,3.916,3.916,0,0,1-1.224-.91,4.223,4.223,0,0,1-1.073-2.792,4.016,4.016,0,0,1,.3-1.528,4.209,4.209,0,0,1,.82-1.292,3.917,3.917,0,0,1,1.242-.893,3.681,3.681,0,0,1,1.561-.332,3.493,3.493,0,0,1,1.578.354,3.93,3.93,0,0,1,1.219.926,4.26,4.26,0,0,1,.786,1.3,4.1,4.1,0,0,1,.281,1.483,4.034,4.034,0,0,1-.292,1.522,4.139,4.139,0,0,1-.809,1.281,3.889,3.889,0,0,1-1.236.887A3.682,3.682,0,0,1,287.634,431.083Zm-2.314-4.044a3.2,3.2,0,0,0,.157,1,2.658,2.658,0,0,0,.455.854,2.268,2.268,0,0,0,.73.6,2.111,2.111,0,0,0,.983.224,2.079,2.079,0,0,0,.994-.23,2.264,2.264,0,0,0,.73-.612,2.714,2.714,0,0,0,.449-.859,3.2,3.2,0,0,0,.152-.972,3.1,3.1,0,0,0-.163-1,2.758,2.758,0,0,0-.461-.854,2.2,2.2,0,0,0-.73-.59,2.275,2.275,0,0,0-1.971.012,2.2,2.2,0,0,0-.73.607,2.714,2.714,0,0,0-.444.853A3.2,3.2,0,0,0,285.32,427.039Z" transform="translate(-276.12 -422.995)"/>
        <path id="Trazado_105" data-name="Trazado 105" d="M305.432,431.066v-5.28l-2.056,3.932h-.843l-2.056-3.932v5.28h-1.55V423.09h1.663l2.359,4.538,2.381-4.538h1.651v7.976Z" transform="translate(-282.325 -423.034)"/>
        <path id="Trazado_106" data-name="Trazado 106" d="M315.362,431.066V423.09h3.381a2.27,2.27,0,0,1,1.017.23,2.633,2.633,0,0,1,.8.607,2.868,2.868,0,0,1,.528.853,2.573,2.573,0,0,1,.191.961,2.771,2.771,0,0,1-.18.983,2.732,2.732,0,0,1-.505.848,2.48,2.48,0,0,1-.786.6,2.27,2.27,0,0,1-1.011.225h-1.887v2.674Zm1.55-4.033h1.8a.886.886,0,0,0,.713-.348,1.437,1.437,0,0,0,.287-.944,1.56,1.56,0,0,0-.09-.545,1.326,1.326,0,0,0-.236-.41.949.949,0,0,0-.343-.253,1.011,1.011,0,0,0-.4-.084h-1.73Z" transform="translate(-289.043 -423.034)"/>
        <path id="Trazado_107" data-name="Trazado 107" d="M327.2,431.066V423.09h3.527a2.265,2.265,0,0,1,1.016.23,2.628,2.628,0,0,1,.8.607,2.869,2.869,0,0,1,.528.853,2.573,2.573,0,0,1,.191.961,2.659,2.659,0,0,1-.387,1.41,2.225,2.225,0,0,1-1.051.915l1.82,3h-1.741l-1.629-2.674h-1.528v2.674Zm1.55-4.033h1.943a.818.818,0,0,0,.4-.1,1.017,1.017,0,0,0,.32-.275,1.377,1.377,0,0,0,.213-.41,1.6,1.6,0,0,0,.079-.505,1.446,1.446,0,0,0-.09-.517,1.342,1.342,0,0,0-.242-.41,1.087,1.087,0,0,0-.348-.27.9.9,0,0,0-.4-.1h-1.876Z" transform="translate(-293.882 -423.034)"/>
        <path id="Trazado_108" data-name="Trazado 108" d="M341.358,423.09h1.37l3.033,7.976h-1.6l-.741-1.988h-2.786l-.73,1.988h-1.6Zm1.786,4.9-1.1-3.134-1.146,3.134Z" transform="translate(-298.426 -423.034)"/>
      </g>
      <g id="Grupo_34" data-name="Grupo 34" transform="translate(0.404)">
        <path id="Trazado_109" data-name="Trazado 109" class="cls-3" d="M244.033,445.413a2.552,2.552,0,0,1-2.995.211c-1.614-1.059-1.485-2.519-.747-4.093h-5.8c.8,1.523.856,2.89-.542,3.981a2.567,2.567,0,0,1-3.007.03c-1.438-1.1-1.37-2.5-.578-4.007-.315-.033-.576.012-.742-.094a4.815,4.815,0,0,1-.712-.667,4.65,4.65,0,0,1,.757-.646c.173-.1.44-.024.665-.024H244.07a14.1,14.1,0,0,1-.487-1.5c-.15-.754-.572-.921-1.306-.914-4.079.038-8.158.013-12.238.024-.61,0-1.111-.084-1.327-.762-1.21-3.8-2.439-7.6-3.64-11.4-.247-.78.061-1.172.886-1.236.28-.022.562-.01.844-.01h17.555c1.9,0,1.874-.011,2.577-1.757a2.486,2.486,0,0,1,.945-1.286c1.207-.591,2.5-1.016,3.756-1.495.516-.2,1.052-.238,1.281.381s-.12.992-.711,1.21c-1,.369-2,.748-2.976,1.179a1.446,1.446,0,0,0-.754.689c-1.475,4.186-2.913,8.386-4.348,12.586a1,1,0,0,0-.018.629c.446,1.146.954,2.268,1.384,3.419.473,1.268.352,1.448-1.066,1.713C245.271,443,245.286,444.3,244.033,445.413Zm-1.7-.808a1.308,1.308,0,0,0,1.313-1.256,1.256,1.256,0,1,0-1.313,1.256Zm-9.922,0a1.324,1.324,0,0,0,1.285-1.287,1.3,1.3,0,0,0-1.284-1.2,1.274,1.274,0,0,0-1.237,1.237A1.293,1.293,0,0,0,232.411,444.607Z" transform="translate(-224.99 -419.634)"/>
      </g>
      <g id="Grupo_35" data-name="Grupo 35" transform="translate(0 1.733)">
        <ellipse id="Elipse_5" data-name="Elipse 5" cx="5.649" cy="5.649" rx="5.649" ry="5.649"/>
      </g>
      <g id="Grupo_36" data-name="Grupo 36" transform="translate(2.598 4.232)">
        <path id="Trazado_110" data-name="Trazado 110" class="cls-4" d="M230.235,430.229a8.8,8.8,0,0,1,4.333-3.428c.061-.028.156.017.234.028a.744.744,0,0,1-.119.214,15.505,15.505,0,0,0-2.787,3.068c-.427.646-.766,1.35-1.149,2.026a5.714,5.714,0,0,1-.478.781.365.365,0,0,1-.65-.052,4.217,4.217,0,0,1-.446-1.039c-.186-.772-.321-1.557-.457-2.34a.46.46,0,0,1,.33-.6q.36-.107.595.3Z" transform="translate(-228.7 -426.792)"/>
      </g>
    </g>
  </g>
</svg>
