<?xml version="1.0" encoding="UTF-8"?>
<!-- Generator: Adobe Illustrator 23.0.1, SVG Export Plug-In . SVG Version: 6.00 Build 0)  -->
<svg version="1.1" id="Layer_1" xmlns="http://www.w3.org/2000/svg" xmlns:xlink="http://www.w3.org/1999/xlink" x="0px" y="0px" viewBox="0 0 130.8 51.2" style="enable-background:new 0 0 130.8 51.2;" xml:space="preserve">
<style type="text/css">
	.st0{fill:#FFFFFF;}
</style>
<title>logo</title>
<path class="st0" d="M125.3,48c0-1.5,1.2-2.7,2.7-2.8c1.5,0,2.7,1.2,2.8,2.7s-1.2,2.7-2.7,2.8c0,0,0,0,0,0  C126.6,50.8,125.3,49.6,125.3,48C125.3,48.1,125.3,48.1,125.3,48z M128,50.3c1.2,0,2.3-0.9,2.3-2.2c0-1.2-0.9-2.3-2.2-2.3  c-1.2,0-2.3,0.9-2.3,2.2c0,0,0,0,0,0.1C125.8,49.3,126.8,50.3,128,50.3C128,50.3,128,50.3,128,50.3z M127.5,49.7H127v-3.2h1.2  c0.7,0,1.1,0.3,1.1,0.9c0,0.4-0.3,0.8-0.8,0.8c0,0,0,0,0,0l0.9,1.4h-0.5l-0.8-1.3h-0.5V49.7z M128,47.9c0.4,0,0.8,0,0.8-0.5  s-0.4-0.5-0.7-0.5h-0.6v1L128,47.9z"/>
<path class="st0" d="M51.4,13.8H0v4.3h51.4c2.2,0,6,0,12-3.8l0.2-0.1c5.7-3.6,15.7-9.9,28-9.9c9.2,0,19.7,3.6,30.6,14.6l3-3  c-27.7-28-54-11.5-63.8-5.3l-0.2,0.1C56.1,13.8,53.4,13.8,51.4,13.8z"/>
<path class="st0" d="M34.2,51.2c-3.7,0.1-7.2-1.4-9.8-4c-2.6-2.6-3.9-6.2-3.9-9.8c-0.1-3.7,1.3-7.2,3.9-9.9c2.6-2.7,6.1-4.1,9.8-4  c3.7-0.1,7.2,1.3,9.8,4c2.6,2.6,4,6.2,3.9,9.9c0.1,3.7-1.3,7.3-3.9,9.9C41.4,49.9,37.9,51.3,34.2,51.2z M34.6,47.2  c2.5,0,4.9-1,6.7-2.8c1.8-1.9,2.8-4.4,2.7-7c0.1-2.6-0.9-5.2-2.7-7.1c-3.5-3.7-9.3-3.8-12.9-0.4c-0.1,0.1-0.3,0.2-0.4,0.4  c-1.8,1.9-2.8,4.5-2.7,7.1c-0.1,2.6,0.9,5.2,2.7,7.1C29.7,46.3,32.1,47.3,34.6,47.2L34.6,47.2z"/>
<path class="st0" d="M51.9,50.7V23.9h12.2c4.8,0,7.9,2.5,7.9,6.6c0.1,2.4-1.3,4.6-3.6,5.5c3.4,0.6,5.9,3.7,5.7,7.2  c0.1,2.1-0.8,4.1-2.4,5.5c-1.9,1.5-4.2,2.2-6.6,2.1L51.9,50.7z M56.1,34.7h7.2c2.8,0,4.4-1.2,4.4-3.5s-1.7-3.4-4.4-3.4h-7.2V34.7z   M56.1,46.8h8.2c3.2,0,5.2-1.6,5.2-4.3s-1.9-4.1-5.2-4.1h-8.2V46.8z"/>
<path class="st0" d="M77.7,50.7V23.9h19.1v3.9H81.9v6.7H94v3.9H81.9v8.5h14.9v3.9L77.7,50.7z"/>
<path class="st0" d="M100.6,50.7V23.9h12.2c2.3-0.1,4.7,0.6,6.5,2.1c1.6,1.4,2.4,3.4,2.4,5.5c0.1,3.6-2.3,6.7-5.8,7.4l8.4,11.8h-5.1  l-8.1-11.3h-6.3v11.3H100.6z M104.8,35.6h7.8c3.1,0,4.9-1.4,4.9-4s-1.8-3.9-4.9-3.9h-7.7L104.8,35.6z"/>
<polygon class="st0" points="22,23.9 16,23.9 5.6,34.3 4.2,35.7 4.2,23.9 0,23.9 0,50.7 4.2,50.7 4.2,38.9 5.6,40.3 16,50.7   22,50.7 8.6,37.3 "/>
</svg>