<svg xmlns="http://www.w3.org/2000/svg" xmlns:xlink="http://www.w3.org/1999/xlink" width="102" height="32" viewBox="0 0 102 32">
  <defs>
    <style>
      .cls-1 {
        fill: none;
        stroke: #707070;
      }

      .cls-2 {
        clip-path: url(#clip-path);
      }

      .cls-3 {
        fill: #ea001b;
      }

      .cls-4 {
        opacity: 0.67;
      }

      .cls-5 {
        fill: #f69d1b;
      }

      .cls-6 {
        fill: #0061b2;
      }

      .cls-7 {
        fill: #fff;
      }

      .cls-8 {
        fill: #00917e;
      }
    </style>
    <clipPath id="clip-path">
      <rect id="Rectángulo_82" data-name="Rectángulo 82" class="cls-1" width="102" height="32" transform="translate(1700 44)"/>
    </clipPath>
  </defs>
  <g id="icono-mesessinintereses-03" class="cls-2" transform="translate(-1700 -44)">
    <g id="Grupo_64" data-name="Grupo 64" transform="translate(699.994 -5103.369)">
      <g id="Grupo_31" data-name="Grupo 31" transform="translate(1001.556 5150.035)">
        <g id="Grupo_15" data-name="Grupo 15" transform="translate(24.986 14.953)">
          <path id="Trazado_73" data-name="Trazado 73" d="M425.822,454.219V444.186h1.95v10.033Z" transform="translate(-425.822 -444.115)"/>
          <path id="Trazado_74" data-name="Trazado 74" d="M433.778,447.789v6.43h-1.95V444.186h1.511l5.229,6.585V444.2h1.95v10.019h-1.583Z" transform="translate(-427.786 -444.115)"/>
          <path id="Trazado_75" data-name="Trazado 75" d="M454.941,445.9h-3.208v8.323H449.8V445.9H446.59v-1.71h8.351Z" transform="translate(-432.615 -444.115)"/>
          <path id="Trazado_76" data-name="Trazado 76" d="M467.816,452.509v1.71h-6.967V444.186h6.839v1.71H462.8v2.416h4.225v1.583H462.8v2.614Z" transform="translate(-437.279 -444.115)"/>
          <path id="Trazado_77" data-name="Trazado 77" d="M473.47,454.219V444.186h4.437a2.847,2.847,0,0,1,1.279.289,3.31,3.31,0,0,1,1.011.763,3.6,3.6,0,0,1,.664,1.075,3.238,3.238,0,0,1,.24,1.208,3.338,3.338,0,0,1-.488,1.773,2.794,2.794,0,0,1-1.321,1.151l2.289,3.774h-2.19l-2.049-3.363H475.42v3.363Zm1.95-5.073h2.445a1.028,1.028,0,0,0,.5-.127,1.283,1.283,0,0,0,.4-.346,1.729,1.729,0,0,0,.268-.516,2,2,0,0,0,.1-.636,1.811,1.811,0,0,0-.113-.65,1.711,1.711,0,0,0-.3-.516,1.373,1.373,0,0,0-.438-.339,1.135,1.135,0,0,0-.5-.12h-2.36Z" transform="translate(-441.407 -444.115)"/>
          <path id="Trazado_78" data-name="Trazado 78" d="M494.4,452.509v1.71h-6.967V444.186h6.839v1.71h-4.889v2.416h4.224v1.583h-4.224v2.614Z" transform="translate(-445.975 -444.115)"/>
          <path id="Trazado_79" data-name="Trazado 79" d="M505.361,446.78a2.443,2.443,0,0,0-.361-.269,4.409,4.409,0,0,0-.635-.332,5.544,5.544,0,0,0-.813-.275,3.55,3.55,0,0,0-.891-.113,1.994,1.994,0,0,0-1.2.3.981.981,0,0,0-.4.834.857.857,0,0,0,.148.515,1.277,1.277,0,0,0,.431.361,3.623,3.623,0,0,0,.713.282q.431.127,1,.269.734.2,1.335.424a3.609,3.609,0,0,1,1.018.565,2.335,2.335,0,0,1,.643.813,2.7,2.7,0,0,1,.226,1.165,2.911,2.911,0,0,1-.3,1.377,2.565,2.565,0,0,1-.82.926,3.584,3.584,0,0,1-1.188.516,5.957,5.957,0,0,1-1.406.163,7.55,7.55,0,0,1-2.233-.339,6.907,6.907,0,0,1-1.979-.961l.863-1.682a2.722,2.722,0,0,0,.459.332,7.122,7.122,0,0,0,.784.41,6.068,6.068,0,0,0,1,.345,4.5,4.5,0,0,0,1.13.142q1.611,0,1.611-1.032a.842.842,0,0,0-.185-.551,1.546,1.546,0,0,0-.522-.4,4.952,4.952,0,0,0-.82-.311q-.48-.141-1.074-.311a9.178,9.178,0,0,1-1.251-.431,3.286,3.286,0,0,1-.883-.551,2.057,2.057,0,0,1-.53-.735,2.532,2.532,0,0,1-.177-1,3.108,3.108,0,0,1,.283-1.357,2.744,2.744,0,0,1,.785-.99,3.558,3.558,0,0,1,1.165-.6,4.83,4.83,0,0,1,1.427-.2,5.539,5.539,0,0,1,1.951.332,7.289,7.289,0,0,1,1.554.784Z" transform="translate(-449.643 -444.081)"/>
          <path id="Trazado_80" data-name="Trazado 80" d="M519.581,452.509v1.71h-6.967V444.186h6.839v1.71h-4.889v2.416h4.225v1.583h-4.225v2.614Z" transform="translate(-454.211 -444.115)"/>
          <path id="Trazado_81" data-name="Trazado 81" d="M530.54,446.78a2.427,2.427,0,0,0-.36-.269,4.425,4.425,0,0,0-.637-.332,5.473,5.473,0,0,0-.812-.275,3.548,3.548,0,0,0-.89-.113,2,2,0,0,0-1.2.3.981.981,0,0,0-.4.834.853.853,0,0,0,.149.515,1.275,1.275,0,0,0,.431.361,3.616,3.616,0,0,0,.714.282q.431.127,1,.269.735.2,1.336.424a3.61,3.61,0,0,1,1.017.565,2.33,2.33,0,0,1,.643.813,2.687,2.687,0,0,1,.226,1.165,2.9,2.9,0,0,1-.3,1.377,2.553,2.553,0,0,1-.82.926,3.571,3.571,0,0,1-1.186.516,5.966,5.966,0,0,1-1.406.163,7.553,7.553,0,0,1-2.233-.339,6.9,6.9,0,0,1-1.978-.961l.862-1.682a2.715,2.715,0,0,0,.459.332,7.135,7.135,0,0,0,.785.41,6.041,6.041,0,0,0,1,.345,4.5,4.5,0,0,0,1.13.142q1.611,0,1.61-1.032a.845.845,0,0,0-.183-.551,1.564,1.564,0,0,0-.523-.4,4.971,4.971,0,0,0-.82-.311q-.48-.141-1.074-.311a9.088,9.088,0,0,1-1.25-.431,3.277,3.277,0,0,1-.884-.551,2.067,2.067,0,0,1-.53-.735,2.544,2.544,0,0,1-.176-1,3.121,3.121,0,0,1,.283-1.357,2.75,2.75,0,0,1,.784-.99,3.574,3.574,0,0,1,1.166-.6,4.837,4.837,0,0,1,1.427-.2,5.538,5.538,0,0,1,1.95.332,7.294,7.294,0,0,1,1.554.784Z" transform="translate(-457.879 -444.081)"/>
        </g>
        <g id="Grupo_16" data-name="Grupo 16" transform="translate(25.027 0.529)">
          <path id="Trazado_82" data-name="Trazado 82" d="M433.733,431.818V424.8l-3.018,5.383h-.651l-3.03-5.383v7.018h-1.151V422.74H427.1l3.286,5.894,3.3-5.894h1.2v9.078Z" transform="translate(-425.883 -422.677)"/>
          <path id="Trazado_83" data-name="Trazado 83" d="M448.651,430.8v1.022h-6.162V422.74h6.047v1.023h-4.9V426.7H447.9v.959H443.64V430.8Z" transform="translate(-431.315 -422.677)"/>
          <path id="Trazado_84" data-name="Trazado 84" d="M458.967,424.614a1.932,1.932,0,0,0-.409-.345,3.632,3.632,0,0,0-.575-.3,4.021,4.021,0,0,0-.7-.217,3.652,3.652,0,0,0-.786-.083,2.464,2.464,0,0,0-1.553.4,1.316,1.316,0,0,0-.493,1.086,1.21,1.21,0,0,0,.141.614,1.158,1.158,0,0,0,.441.416,3.375,3.375,0,0,0,.748.3q.447.128,1.061.268a10.985,10.985,0,0,1,1.272.352,3.725,3.725,0,0,1,.971.492,1.977,1.977,0,0,1,.614.717,2.3,2.3,0,0,1,.211,1.036,2.366,2.366,0,0,1-.255,1.131,2.271,2.271,0,0,1-.7.793,3.028,3.028,0,0,1-1.042.46,5.507,5.507,0,0,1-1.3.147,6.026,6.026,0,0,1-1.988-.326,5.562,5.562,0,0,1-1.706-.952l.55-.972a3.034,3.034,0,0,0,.53.434,4.336,4.336,0,0,0,.742.39,5.466,5.466,0,0,0,.895.281,4.524,4.524,0,0,0,1,.108,2.787,2.787,0,0,0,1.508-.344,1.275,1.275,0,0,0,.365-1.682,1.447,1.447,0,0,0-.505-.454,3.821,3.821,0,0,0-.824-.339q-.493-.147-1.119-.3a10.975,10.975,0,0,1-1.215-.358,3.321,3.321,0,0,1-.876-.46,1.741,1.741,0,0,1-.53-.652,2.16,2.16,0,0,1-.179-.921,2.591,2.591,0,0,1,.243-1.151,2.407,2.407,0,0,1,.678-.844,2.938,2.938,0,0,1,1.036-.518,4.694,4.694,0,0,1,4.283.863Z" transform="translate(-434.727 -422.646)"/>
          <path id="Trazado_85" data-name="Trazado 85" d="M471.717,430.8v1.022h-6.162V422.74H471.6v1.023h-4.9V426.7h4.258v.959h-4.258V430.8Z" transform="translate(-438.859 -422.677)"/>
          <path id="Trazado_86" data-name="Trazado 86" d="M482.033,424.614a1.932,1.932,0,0,0-.409-.345,3.665,3.665,0,0,0-.575-.3,4.034,4.034,0,0,0-.7-.217,3.663,3.663,0,0,0-.787-.083,2.466,2.466,0,0,0-1.554.4,1.319,1.319,0,0,0-.492,1.086,1.2,1.2,0,0,0,.141.614,1.158,1.158,0,0,0,.441.416,3.376,3.376,0,0,0,.748.3q.447.128,1.06.268a10.873,10.873,0,0,1,1.273.352,3.73,3.73,0,0,1,.972.492,1.97,1.97,0,0,1,.614.717,2.3,2.3,0,0,1,.211,1.036,2.375,2.375,0,0,1-.256,1.131,2.278,2.278,0,0,1-.7.793,3.027,3.027,0,0,1-1.042.46,5.507,5.507,0,0,1-1.3.147,6.022,6.022,0,0,1-1.988-.326,5.581,5.581,0,0,1-1.707-.952l.55-.972a3.037,3.037,0,0,0,.531.434,4.251,4.251,0,0,0,.741.39,5.448,5.448,0,0,0,.9.281,4.515,4.515,0,0,0,1,.108,2.79,2.79,0,0,0,1.509-.344,1.276,1.276,0,0,0,.364-1.682,1.462,1.462,0,0,0-.5-.454,3.819,3.819,0,0,0-.825-.339q-.492-.147-1.118-.3a10.984,10.984,0,0,1-1.215-.358,3.291,3.291,0,0,1-.875-.46,1.737,1.737,0,0,1-.531-.652,2.161,2.161,0,0,1-.179-.921,2.6,2.6,0,0,1,.242-1.151,2.433,2.433,0,0,1,.678-.844,2.943,2.943,0,0,1,1.036-.518,5.043,5.043,0,0,1,2.966.108,4.657,4.657,0,0,1,1.318.755Z" transform="translate(-442.271 -422.646)"/>
          <path id="Trazado_87" data-name="Trazado 87" d="M498.411,424.614a1.954,1.954,0,0,0-.41-.345,3.655,3.655,0,0,0-.575-.3,4.042,4.042,0,0,0-.7-.217,3.657,3.657,0,0,0-.786-.083,2.466,2.466,0,0,0-1.554.4,1.318,1.318,0,0,0-.492,1.086,1.2,1.2,0,0,0,.141.614,1.148,1.148,0,0,0,.441.416,3.382,3.382,0,0,0,.748.3q.447.128,1.061.268a10.941,10.941,0,0,1,1.272.352,3.716,3.716,0,0,1,.971.492,1.971,1.971,0,0,1,.614.717,2.3,2.3,0,0,1,.211,1.036,2.367,2.367,0,0,1-.256,1.131,2.275,2.275,0,0,1-.7.793,3.031,3.031,0,0,1-1.042.46,5.5,5.5,0,0,1-1.3.147,6.025,6.025,0,0,1-1.988-.326,5.571,5.571,0,0,1-1.706-.952l.55-.972a3.028,3.028,0,0,0,.53.434,4.3,4.3,0,0,0,.741.39,5.49,5.49,0,0,0,.9.281,4.526,4.526,0,0,0,1,.108,2.789,2.789,0,0,0,1.508-.344,1.275,1.275,0,0,0,.365-1.682,1.459,1.459,0,0,0-.505-.454,3.827,3.827,0,0,0-.824-.339q-.493-.147-1.119-.3a11.016,11.016,0,0,1-1.215-.358,3.307,3.307,0,0,1-.875-.46,1.728,1.728,0,0,1-.53-.652,2.16,2.16,0,0,1-.18-.921,2.592,2.592,0,0,1,.243-1.151,2.416,2.416,0,0,1,.678-.844,2.944,2.944,0,0,1,1.036-.518,5.046,5.046,0,0,1,2.966.108,4.653,4.653,0,0,1,1.317.755Z" transform="translate(-447.628 -422.646)"/>
          <path id="Trazado_88" data-name="Trazado 88" d="M505,431.818V422.74h1.151v9.078Z" transform="translate(-451.761 -422.677)"/>
          <path id="Trazado_89" data-name="Trazado 89" d="M511.089,424.889v6.929h-1.151V422.74h.895l5.626,7.07v-7.057h1.151v9.064h-.972Z" transform="translate(-453.377 -422.677)"/>
        </g>
        <g id="Grupo_17" data-name="Grupo 17" transform="translate(5.794 1.591)">
          <ellipse id="Elipse_3" data-name="Elipse 3" class="cls-3" cx="3.256" cy="3.256" rx="3.256" ry="3.256"/>
        </g>
        <g id="Grupo_19" data-name="Grupo 19" class="cls-4" transform="translate(9.722 1.591)">
          <g id="Grupo_18" data-name="Grupo 18">
            <ellipse id="Elipse_4" data-name="Elipse 4" class="cls-5" cx="3.256" cy="3.256" rx="3.256" ry="3.256"/>
          </g>
        </g>
        <g id="Grupo_26" data-name="Grupo 26" transform="translate(2.98 16.837)">
          <g id="Grupo_21" data-name="Grupo 21" transform="translate(10.746 0.157)">
            <g id="Grupo_20" data-name="Grupo 20">
              <path id="Trazado_90" data-name="Trazado 90" class="cls-6" d="M413.385,447.124l.359,4.7h-1.254c-.031-.234-.032-.471-.063-.712-.026,0-.05,0-.074,0-.49,0-.98,0-1.471,0a.1.1,0,0,0-.1.063c-.1.2-.2.394-.292.591a.1.1,0,0,1-.108.069c-.405,0-.81,0-1.216,0h-.073c.014-.031.024-.055.036-.077l.9-1.736q.737-1.412,1.473-2.826a.124.124,0,0,1,.128-.076c.553,0,1.106,0,1.659,0C413.318,447.117,413.348,447.121,413.385,447.124Zm-1.166,1.216-.022-.006c-.086.162-.164.327-.247.491s-.165.33-.248.5-.168.334-.25.5-.169.325-.242.495a10.572,10.572,0,0,0,1.159,0Z" transform="translate(-409.089 -447.115)"/>
            </g>
          </g>
          <g id="Grupo_22" data-name="Grupo 22" transform="translate(0 0.062)">
            <path id="Trazado_91" data-name="Trazado 91" class="cls-6" d="M393.119,447.1v-.124h2.159c.041.319.067.64.1.96s.063.637.1.955.065.639.1.959l.02,0,.038-.058.947-1.627c.219-.376.439-.752.656-1.128a.123.123,0,0,1,.124-.071c.376,0,.751,0,1.126,0h.069c.008.035-.013.055-.026.077l-.755,1.3q-.98,1.683-1.959,3.365a.123.123,0,0,1-.122.072c-.378,0-.756,0-1.133,0h-.081a.707.707,0,0,1-.014-.074q-.036-.347-.071-.694c-.022-.221-.043-.443-.065-.664s-.046-.448-.069-.672-.044-.438-.066-.657l-.069-.679q-.024-.239-.049-.478a.782.782,0,0,0-.657-.72C393.321,447.127,393.224,447.118,393.119,447.1Z" transform="translate(-393.119 -446.973)"/>
          </g>
          <g id="Grupo_23" data-name="Grupo 23" transform="translate(6.803)">
            <path id="Trazado_92" data-name="Trazado 92" class="cls-6" d="M403.229,451.363l.639-.911.07.049a2.539,2.539,0,0,0,.826.4,1.274,1.274,0,0,0,.766-.036.692.692,0,0,0,.195-.11.314.314,0,0,0,.077-.424.82.82,0,0,0-.163-.194,3.641,3.641,0,0,0-.306-.229c-.174-.122-.353-.237-.527-.359a2.022,2.022,0,0,1-.352-.314,1.136,1.136,0,0,1-.3-.626,1.266,1.266,0,0,1,.062-.54,1.583,1.583,0,0,1,1.148-1.093,2.442,2.442,0,0,1,.831-.087,2.929,2.929,0,0,1,1.584.6.2.2,0,0,1,.02.024l-.742.776-.072-.049a3.088,3.088,0,0,0-.545-.314.871.871,0,0,0-.651-.007.435.435,0,0,0-.3.344.242.242,0,0,0,.043.206.834.834,0,0,0,.155.161c.137.1.281.192.422.287s.3.2.447.3a2,2,0,0,1,.349.318,1.129,1.129,0,0,1,.228,1.176,1.768,1.768,0,0,1-.715.9,1.855,1.855,0,0,1-1.08.328,4.2,4.2,0,0,1-1.638-.314c-.137-.059-.267-.137-.4-.207A.9.9,0,0,1,403.229,451.363Z" transform="translate(-403.229 -446.881)"/>
          </g>
          <g id="Grupo_24" data-name="Grupo 24" transform="translate(4.618 0.062)">
            <path id="Trazado_93" data-name="Trazado 93" class="cls-6" d="M402.794,446.974l-1.558,4.806h-1.254c.008-.029.013-.053.021-.076l1.508-4.655c.024-.075.025-.075.1-.075h1.18Z" transform="translate(-399.982 -446.974)"/>
          </g>
          <g id="Grupo_25" data-name="Grupo 25" transform="translate(12.867 1.376)">
            <path id="Trazado_94" data-name="Trazado 94" class="cls-7" d="M413.25,448.932l.151,1.976a10.563,10.563,0,0,1-1.159,0c.073-.17.161-.33.242-.495s.167-.335.25-.5.164-.331.248-.5.161-.33.247-.491Z" transform="translate(-412.241 -448.926)"/>
          </g>
        </g>
        <g id="Grupo_27" data-name="Grupo 27">
          <path id="Trazado_95" data-name="Trazado 95" class="cls-8" d="M410.719,433.905H388.691v-8.539a3.511,3.511,0,0,1,3.507-3.507h18.522Zm-21.355-.673h20.683v-10.7H392.2a2.837,2.837,0,0,0-2.834,2.834Z" transform="translate(-388.691 -421.86)"/>
        </g>
        <g id="Grupo_28" data-name="Grupo 28" transform="translate(0 14.322)">
          <path id="Trazado_96" data-name="Trazado 96" class="cls-8" d="M410.719,455.188H391.582a2.9,2.9,0,0,1-2.891-2.891v-9.153h22.028Zm-21.355-11.371v8.48a2.221,2.221,0,0,0,2.219,2.219h18.464v-10.7Z" transform="translate(-388.691 -443.144)"/>
        </g>
        <g id="Grupo_29" data-name="Grupo 29" transform="translate(0.337 9.117)">
          <rect id="Rectángulo_44" data-name="Rectángulo 44" class="cls-8" width="21.355" height="1.766"/>
        </g>
        <g id="Grupo_30" data-name="Grupo 30" transform="translate(7.598 23.248)">
          <rect id="Rectángulo_45" data-name="Rectángulo 45" class="cls-8" width="13.01" height="1.766"/>
        </g>
      </g>
    </g>
  </g>
</svg>
